<?xml version="1.0" standalone="no"?>
<!DOCTYPE svg PUBLIC "-//W3C//DTD SVG 20010904//EN"
 "http://www.w3.org/TR/2001/REC-SVG-20010904/DTD/svg10.dtd">
<svg version="1.0" xmlns="http://www.w3.org/2000/svg"
 width="512.000000pt" height="512.000000pt" viewBox="0 0 512.000000 512.000000"
 preserveAspectRatio="xMidYMid meet">

<g transform="translate(0.000000,512.000000) scale(0.100000,-0.100000)"
fill="#000000" stroke="none">
<path d="M203 5102 c-100 -35 -171 -114 -193 -216 -8 -35 -10 -206 -8 -537 l3
-486 32 -61 32 -62 -32 -62 -32 -61 0 -517 0 -517 32 -61 32 -62 -32 -62 -32
-61 0 -516 c0 -504 1 -517 21 -562 31 -66 78 -114 142 -146 l57 -28 1176 -3
1177 -2 7 -48 c9 -65 67 -237 106 -314 124 -247 340 -463 587 -587 346 -174
783 -171 1137 7 234 117 453 337 573 577 90 179 126 343 126 565 0 226 -36
386 -132 575 -112 223 -335 450 -549 558 -28 15 -54 31 -57 36 -3 5 9 37 27
71 l32 63 0 517 0 517 -32 61 -32 62 32 62 32 61 0 516 0 516 -28 57 c-32 64
-80 111 -146 142 l-46 21 -1980 2 c-1880 2 -1983 2 -2032 -15z m3982 -194 c55
-25 55 -28 55 -528 0 -488 -1 -504 -47 -526 -10 -5 -371 -11 -801 -14 l-784
-5 -24 -28 c-33 -38 -33 -96 0 -134 l24 -28 784 -5 c430 -3 791 -9 801 -14 46
-22 47 -38 47 -526 0 -500 0 -503 -55 -528 -38 -17 -3892 -17 -3930 0 -55 25
-55 28 -55 527 0 335 3 467 12 486 26 57 3 55 820 55 836 0 785 -4 814 66 12
29 12 39 0 68 -29 70 22 66 -814 66 -817 0 -794 -2 -820 55 -18 39 -16 941 2
974 29 53 -85 50 2003 51 1485 0 1948 -3 1968 -12z m-1085 -2585 c-140 -92
-322 -307 -409 -481 -70 -138 -131 -383 -131 -521 l0 -41 -1140 0 c-1240 0
-1182 -3 -1208 55 -18 39 -16 941 2 974 29 53 -46 50 1501 51 l1440 0 -55 -37z
m1003 3 c110 -28 254 -93 346 -156 83 -55 190 -158 252 -239 70 -92 154 -267
186 -386 23 -89 26 -118 26 -265 0 -146 -3 -176 -26 -262 -29 -109 -88 -242
-149 -336 -43 -65 -52 -72 -62 -45 -17 43 -102 155 -168 221 -84 83 -166 142
-258 185 -36 17 -67 32 -69 33 -2 2 9 17 23 35 37 44 73 118 91 186 83 320
-201 630 -528 575 -315 -53 -488 -390 -346 -673 15 -31 40 -70 55 -88 14 -17
25 -33 23 -35 -2 -2 -31 -15 -63 -30 -154 -69 -320 -218 -405 -363 -20 -35
-39 -63 -42 -63 -12 0 -87 123 -128 210 -23 47 -53 130 -68 185 -23 89 -26
118 -26 265 0 147 3 176 26 265 32 119 116 294 186 386 167 220 428 375 707
419 103 16 307 4 417 -24z m-153 -671 c66 -33 98 -65 129 -126 66 -133 22
-281 -107 -357 -41 -24 -57 -27 -132 -27 -75 0 -91 3 -132 27 -89 53 -138 140
-138 244 0 106 87 221 194 254 44 14 146 6 186 -15z m15 -730 c227 -40 427
-183 534 -384 49 -94 55 -78 -53 -153 -85 -59 -231 -125 -343 -155 -87 -23
-117 -26 -263 -26 -146 0 -176 3 -263 26 -118 31 -266 100 -355 164 -36 27
-70 51 -75 54 -17 12 74 168 140 239 114 123 263 206 426 235 98 18 149 18
252 0z"/>
<path d="M2657 4663 c-64 -22 -144 -94 -173 -158 -33 -70 -33 -180 0 -250 32
-69 109 -137 181 -160 142 -44 303 28 364 165 30 66 29 178 -3 245 -63 136
-225 206 -369 158z m171 -218 c31 -36 30 -95 -2 -132 -20 -23 -32 -28 -71 -28
-39 0 -51 5 -71 28 -42 49 -26 134 30 158 35 14 89 2 114 -26z"/>
<path d="M3537 4663 c-64 -22 -144 -94 -173 -158 -33 -70 -33 -180 0 -250 32
-69 109 -137 181 -160 142 -44 303 28 364 165 30 66 29 178 -3 245 -63 136
-225 206 -369 158z m171 -218 c31 -36 30 -95 -2 -132 -20 -23 -32 -28 -71 -28
-39 0 -51 5 -71 28 -42 49 -26 134 30 158 35 14 89 2 114 -26z"/>
<path d="M564 4470 c-56 -23 -72 -108 -30 -157 l24 -28 702 0 702 0 24 28 c33
38 33 96 0 134 l-24 28 -689 2 c-378 1 -698 -2 -709 -7z"/>
<path d="M2164 3830 c-55 -22 -72 -108 -31 -155 48 -56 133 -40 163 31 12 29
12 39 0 68 -24 57 -75 79 -132 56z"/>
<path d="M2657 3383 c-64 -22 -144 -94 -173 -158 -33 -70 -33 -180 0 -250 32
-69 109 -137 181 -160 142 -44 303 28 364 165 30 66 29 178 -3 245 -63 136
-225 206 -369 158z m171 -218 c31 -36 30 -95 -2 -132 -20 -23 -32 -28 -71 -28
-39 0 -51 5 -71 28 -42 49 -26 134 30 158 35 14 89 2 114 -26z"/>
<path d="M3537 3383 c-64 -22 -144 -94 -173 -158 -33 -70 -33 -180 0 -250 32
-69 109 -137 181 -160 142 -44 303 28 364 165 30 66 29 178 -3 245 -63 136
-225 206 -369 158z m171 -218 c31 -36 30 -95 -2 -132 -20 -23 -32 -28 -71 -28
-39 0 -51 5 -71 28 -42 49 -26 134 30 158 35 14 89 2 114 -26z"/>
<path d="M564 3190 c-56 -23 -72 -108 -30 -157 l24 -28 702 0 702 0 24 28 c33
38 33 96 0 134 l-24 28 -689 2 c-378 1 -698 -2 -709 -7z"/>
<path d="M564 1910 c-56 -23 -72 -108 -30 -157 l24 -28 702 0 702 0 24 28 c33
38 33 96 0 134 l-24 28 -689 2 c-378 1 -698 -2 -709 -7z"/>
</g>
</svg>
