<?xml version="1.0" standalone="no"?>
<!DOCTYPE svg PUBLIC "-//W3C//DTD SVG 20010904//EN"
 "http://www.w3.org/TR/2001/REC-SVG-20010904/DTD/svg10.dtd">
<svg version="1.0" xmlns="http://www.w3.org/2000/svg"
 width="512.000000pt" height="511.000000pt" viewBox="0 0 512.000000 511.000000"
 preserveAspectRatio="xMidYMid meet">

<g transform="translate(0.000000,511.000000) scale(0.100000,-0.100000)"
fill="#000000" stroke="none">
<path d="M273 4900 c-103 -15 -202 -90 -245 -184 l-23 -51 0 -2120 0 -2120 21
-46 c32 -69 91 -128 159 -161 l60 -28 1003 0 1003 0 24 24 c47 47 43 112 -9
150 -27 21 -36 21 -1007 24 -900 2 -982 4 -1006 19 -56 37 -53 -51 -53 1713
l0 1630 2360 0 2360 0 0 -1630 c0 -1764 3 -1676 -53 -1713 -24 -15 -103 -17
-947 -19 l-922 -3 -29 -33 c-40 -44 -40 -93 0 -133 l29 -29 939 0 938 0 60 28
c68 33 127 92 159 161 l21 46 0 2120 0 2120 -23 51 c-44 98 -141 168 -254 184
-76 12 -4489 11 -4565 0z m4594 -217 c50 -33 53 -56 53 -408 l0 -325 -2360 0
-2360 0 0 324 c0 198 4 336 10 353 6 15 23 38 38 50 l27 23 2283 0 c2134 0
2284 -1 2309 -17z"/>
<path d="M639 4416 c-20 -7 -41 -24 -52 -44 -17 -29 -18 -39 -8 -72 22 -73
108 -95 162 -41 38 38 39 87 4 129 -29 35 -60 43 -106 28z"/>
<path d="M1143 4422 c-39 -6 -73 -50 -73 -94 0 -116 171 -134 193 -20 5 29
-13 85 -32 97 -20 12 -65 21 -88 17z"/>
<path d="M1629 4416 c-47 -15 -75 -72 -59 -120 23 -70 108 -89 161 -37 38 38
39 87 4 129 -29 35 -60 43 -106 28z"/>
<path d="M2493 4423 c-12 -2 -33 -15 -46 -29 -42 -41 -42 -97 0 -138 l26 -26
1004 0 1005 0 29 29 c40 40 40 89 0 133 l-29 33 -984 1 c-541 1 -993 0 -1005
-3z"/>
<path d="M1068 2964 c-40 -8 -76 -50 -83 -97 -3 -23 -5 -274 -3 -557 3 -556 2
-543 57 -572 18 -10 79 -13 235 -12 233 0 274 9 363 74 82 60 143 182 143 286
0 61 -35 163 -74 214 l-34 45 35 48 c40 55 73 149 73 210 0 105 -61 227 -143
287 -85 62 -132 73 -347 76 -107 1 -207 0 -222 -2z m432 -223 c40 -21 80 -89
80 -136 0 -47 -40 -115 -80 -136 -29 -16 -57 -19 -177 -19 l-143 0 0 155 0
155 143 0 c120 0 148 -3 177 -19z m0 -520 c40 -21 80 -89 80 -136 0 -47 -40
-115 -80 -136 -29 -16 -57 -19 -177 -19 l-143 0 0 155 0 155 143 0 c120 0 148
-3 177 -19z"/>
<path d="M1996 2929 l-27 -31 3 -467 3 -466 25 -50 c53 -108 169 -185 281
-185 59 0 93 20 108 63 23 64 -16 118 -95 133 -52 9 -88 31 -108 64 -14 25
-16 77 -16 443 0 228 -3 428 -6 446 -17 81 -117 111 -168 50z"/>
<path d="M2807 2439 c-277 -65 -374 -420 -168 -612 78 -73 129 -92 246 -92 87
0 107 3 155 26 73 35 136 100 173 178 54 115 39 258 -38 363 -81 110 -237 168
-368 137z m153 -211 c58 -30 94 -94 87 -157 -16 -151 -223 -195 -300 -64 -35
61 -20 149 35 200 50 47 111 54 178 21z"/>
<path d="M3680 2434 c-220 -59 -329 -308 -225 -514 32 -64 122 -144 190 -169
68 -26 188 -28 242 -6 19 8 40 15 45 15 7 0 9 -37 6 -98 -4 -110 -21 -151 -78
-189 -39 -27 -116 -31 -160 -8 -44 23 -79 76 -86 129 -12 87 -73 129 -142 100
-49 -20 -66 -68 -52 -146 16 -86 49 -146 114 -206 78 -71 145 -95 256 -90 70
2 95 8 143 33 74 37 148 117 179 193 22 55 23 66 23 367 l0 310 -26 61 c-33
78 -72 127 -135 169 -55 37 -146 65 -204 64 -19 0 -60 -7 -90 -15z m153 -198
c74 -31 116 -114 97 -187 -20 -75 -77 -119 -155 -119 -56 0 -96 19 -129 63
-60 78 -34 188 54 234 49 26 87 29 133 9z"/>
<path d="M1068 943 c-32 -5 -76 -46 -80 -76 -10 -67 29 -113 105 -122 29 -3
709 -5 1512 -3 1256 3 1463 5 1482 18 60 40 60 130 0 170 -19 13 -226 15
-1507 16 -817 1 -1497 -1 -1512 -3z"/>
<path d="M2558 350 c-27 -28 -30 -36 -25 -73 7 -53 44 -87 93 -87 74 0 119 66
90 133 -27 66 -106 79 -158 27z"/>
</g>
</svg>
