<?xml version="1.0" standalone="no"?>
<!DOCTYPE svg PUBLIC "-//W3C//DTD SVG 20010904//EN"
 "http://www.w3.org/TR/2001/REC-SVG-20010904/DTD/svg10.dtd">
<svg version="1.0" xmlns="http://www.w3.org/2000/svg"
 width="512.000000pt" height="512.000000pt" viewBox="0 0 512.000000 512.000000"
 preserveAspectRatio="xMidYMid meet">

<g transform="translate(0.000000,512.000000) scale(0.100000,-0.100000)"
fill="#000000" stroke="none">
<path d="M2476 4178 c-96 -9 -210 -46 -296 -96 -80 -46 -213 -178 -259 -256
-135 -228 -136 -531 -4 -755 48 -80 141 -182 206 -226 33 -23 46 -36 36 -39
-82 -29 -154 -58 -199 -81 -67 -34 -212 -128 -230 -150 -7 -8 -16 -15 -21 -15
-4 0 -43 25 -85 55 -67 48 -177 108 -237 129 -16 5 -8 18 55 84 148 158 199
346 148 546 -125 488 -768 600 -1047 183 -70 -104 -98 -196 -97 -322 0 -171
60 -312 180 -425 l62 -57 -57 -23 c-123 -50 -213 -112 -326 -225 -195 -195
-288 -403 -302 -677 l-6 -118 621 0 621 0 -5 -132 c-7 -156 8 -247 58 -348 43
-88 153 -197 239 -237 125 -60 98 -58 1034 -58 l860 0 71 22 c132 42 263 153
325 274 49 98 62 174 57 337 l-5 142 625 0 625 0 -6 113 c-11 212 -67 377
-189 554 -98 142 -281 291 -429 349 l-66 26 72 72 c115 117 169 249 169 416
-1 247 -159 464 -399 546 -100 35 -244 39 -340 10 -201 -60 -363 -229 -410
-428 -46 -194 9 -389 153 -539 l72 -77 -55 -22 c-68 -28 -175 -91 -233 -137
-23 -19 -48 -33 -55 -30 -7 3 -47 29 -88 59 -88 63 -229 138 -309 163 -30 10
-59 20 -63 22 -5 3 14 20 41 38 64 44 158 147 205 226 131 222 131 522 -1 749
-48 83 -179 214 -262 262 -132 77 -292 111 -454 96z m217 -174 c206 -53 374
-222 422 -425 66 -284 -91 -573 -370 -679 -82 -31 -235 -39 -325 -16 -112 28
-188 72 -270 155 -122 124 -172 242 -171 404 0 169 49 285 171 408 80 81 165
131 263 155 73 17 208 17 280 -2z m-1553 -366 c243 -73 370 -347 266 -573 -79
-174 -262 -275 -445 -246 -229 37 -390 255 -353 477 42 253 291 414 532 342z
m3070 0 c242 -73 370 -347 266 -573 -80 -175 -262 -275 -445 -246 -185 30
-322 168 -353 354 -26 160 50 326 192 417 97 62 229 81 340 48z m-1447 -953
c110 -21 216 -58 327 -116 288 -148 500 -413 585 -730 27 -101 50 -318 40
-383 -23 -161 -94 -264 -225 -325 l-55 -26 -880 0 -880 0 -63 29 c-80 37 -161
122 -193 203 -21 52 -23 73 -22 203 0 94 7 173 18 225 100 476 453 825 930
921 88 17 325 17 418 -1z m-1518 -65 c91 -25 192 -73 277 -132 32 -23 58 -42
58 -44 0 -2 -22 -29 -48 -61 -103 -124 -177 -257 -232 -418 l-28 -80 -552 -3
-553 -2 6 50 c3 28 19 89 36 136 98 286 340 499 641 565 110 25 280 20 395
-11z m3079 -5 c242 -71 432 -228 544 -450 34 -69 66 -168 76 -237 l7 -48 -558
0 -559 0 -13 48 c-31 121 -135 316 -237 443 l-53 67 22 20 c80 74 249 151 384
177 114 21 274 13 387 -20z"/>
</g>
</svg>
