<?xml version="1.0" standalone="no"?>
<!DOCTYPE svg PUBLIC "-//W3C//DTD SVG 20010904//EN"
 "http://www.w3.org/TR/2001/REC-SVG-20010904/DTD/svg10.dtd">
<svg version="1.0" xmlns="http://www.w3.org/2000/svg"
 width="512.000000pt" height="512.000000pt" viewBox="0 0 512.000000 512.000000"
 preserveAspectRatio="xMidYMid meet">

<g transform="translate(0.000000,512.000000) scale(0.100000,-0.100000)"
fill="#000000" stroke="none">
<path d="M1060 4576 c-481 -213 -806 -363 -822 -379 l-28 -26 0 -1610 0 -1610
22 -25 c24 -26 1612 -736 1647 -736 10 0 29 9 42 19 23 18 24 25 27 175 l4
156 933 0 c663 0 941 3 958 11 14 6 30 22 36 36 8 17 11 255 11 809 l0 785
-25 24 c-27 28 -62 32 -91 11 -18 -14 -19 -37 -24 -773 l-5 -758 -897 -3 -898
-2 0 1880 0 1880 898 -2 897 -3 5 -758 c5 -736 6 -759 24 -773 29 -21 64 -17
91 11 l25 24 0 785 c0 554 -3 792 -11 809 -6 14 -22 30 -36 36 -17 8 -295 11
-958 11 l-933 0 -4 156 c-3 150 -4 157 -27 175 -13 10 -33 19 -45 18 -11 0
-379 -159 -816 -353z m750 -2017 c0 -1386 -4 -2189 -10 -2187 -5 1 -333 147
-730 323 l-720 320 0 1545 0 1545 722 322 c398 177 726 322 731 322 4 1 7
-985 7 -2190z"/>
<path d="M471 2494 c-21 -26 -21 -35 -21 -614 0 -579 0 -588 21 -614 25 -32
77 -36 102 -8 15 17 17 75 17 624 0 573 -1 606 -18 621 -29 26 -77 22 -101 -9z"/>
<path d="M4290 3110 c-12 -12 -20 -33 -20 -52 0 -28 23 -55 197 -230 l197
-198 -1077 0 c-1064 0 -1077 0 -1097 -20 -11 -11 -20 -33 -20 -50 0 -17 9 -39
20 -50 20 -20 33 -20 1097 -20 l1077 0 -197 -198 c-174 -175 -197 -202 -197
-230 0 -40 30 -72 67 -72 23 0 77 49 300 273 209 209 273 278 273 297 0 19
-64 88 -273 297 -291 292 -301 299 -347 253z"/>
</g>
</svg>
