<?xml version="1.0" standalone="no"?>
<!DOCTYPE svg PUBLIC "-//W3C//DTD SVG 20010904//EN"
 "http://www.w3.org/TR/2001/REC-SVG-20010904/DTD/svg10.dtd">
<svg version="1.0" xmlns="http://www.w3.org/2000/svg"
 width="512.000000pt" height="512.000000pt" viewBox="0 0 512.000000 512.000000"
 preserveAspectRatio="xMidYMid meet">

<g transform="translate(0.000000,512.000000) scale(0.100000,-0.100000)"
fill="#000000" stroke="none">
<path d="M345 4496 c-84 -21 -147 -57 -211 -121 -65 -65 -105 -136 -123 -223
-16 -76 -16 -3109 0 -3184 37 -172 175 -310 347 -347 75 -16 4328 -16 4404 0
170 36 311 178 347 347 16 76 16 3110 0 3184 -37 172 -176 311 -347 347 -81
17 -4349 14 -4417 -3z m4395 -306 c26 -13 47 -34 60 -60 20 -39 20 -56 20
-1570 0 -1514 0 -1531 -20 -1570 -13 -26 -34 -47 -60 -60 -39 -20 -54 -20
-2181 -20 l-2141 0 -40 22 c-24 14 -48 38 -59 60 -18 36 -19 84 -19 1570 1
1457 2 1535 19 1567 10 18 35 44 57 57 l39 24 2143 0 c2128 0 2143 0 2182 -20z"/>
<path d="M1786 3899 c-622 -86 -1101 -570 -1177 -1189 -14 -113 -7 -293 16
-405 97 -474 434 -860 891 -1018 160 -55 257 -71 439 -72 186 0 263 12 429 66
208 68 358 161 522 324 204 202 319 415 381 706 24 116 25 381 0 499 -39 185
-110 356 -212 510 -63 95 -258 291 -351 352 -161 107 -335 180 -506 213 -100
20 -337 27 -432 14z m414 -317 c198 -52 365 -146 501 -281 273 -274 376 -682
262 -1045 -26 -86 -91 -224 -123 -266 l-20 -25 -27 35 c-87 111 -204 212 -325
279 l-57 32 34 48 c103 144 138 326 95 495 -29 113 -73 190 -160 276 -86 87
-163 131 -276 160 -141 36 -294 18 -427 -52 -81 -42 -203 -164 -245 -245 -107
-203 -90 -449 43 -634 l34 -48 -57 -32 c-123 -68 -245 -174 -327 -283 l-29
-38 -22 27 c-64 81 -144 290 -163 429 -79 569 317 1095 895 1186 92 14 307 4
394 -18z m-106 -606 c105 -51 161 -144 161 -266 0 -85 -21 -142 -74 -203 -82
-92 -237 -121 -353 -64 -160 79 -215 278 -118 430 80 126 246 170 384 103z
m61 -891 c172 -46 353 -180 437 -323 l18 -30 -83 -53 c-91 -59 -204 -108 -324
-141 -65 -18 -106 -21 -243 -21 -147 0 -176 3 -265 26 -106 29 -272 105 -342
157 -50 37 -50 38 30 138 111 137 286 236 472 266 55 8 239 -3 300 -19z"/>
<path d="M3688 3589 c-43 -22 -78 -81 -78 -129 0 -50 35 -107 80 -130 37 -19
58 -20 375 -20 317 0 338 1 375 20 45 23 80 80 80 130 0 50 -35 107 -80 130
-37 19 -58 20 -377 20 -317 -1 -340 -2 -375 -21z"/>
<path d="M3688 2989 c-43 -22 -78 -81 -78 -129 0 -50 35 -107 80 -130 37 -19
58 -20 375 -20 317 0 338 1 375 20 45 23 80 80 80 130 0 50 -35 107 -80 130
-37 19 -58 20 -377 20 -317 -1 -340 -2 -375 -21z"/>
<path d="M3688 2389 c-43 -22 -78 -81 -78 -129 0 -50 35 -107 80 -130 37 -19
58 -20 375 -20 317 0 338 1 375 20 45 23 80 80 80 130 0 50 -35 107 -80 130
-37 19 -58 20 -377 20 -317 -1 -340 -2 -375 -21z"/>
<path d="M3688 1789 c-43 -22 -78 -81 -78 -129 0 -50 35 -107 80 -130 37 -19
58 -20 375 -20 317 0 338 1 375 20 45 23 80 80 80 130 0 50 -35 107 -80 130
-37 19 -58 20 -377 20 -317 -1 -340 -2 -375 -21z"/>
</g>
</svg>
