<?xml version="1.0"?>
<svg xmlns="http://www.w3.org/2000/svg" xmlns:xlink="http://www.w3.org/1999/xlink" xmlns:svgjs="http://svgjs.com/svgjs" version="1.1" width="512" height="512" x="0" y="0" viewBox="0 0 512.055 512.055" style="enable-background:new 0 0 512 512" xml:space="preserve" class=""><g><path xmlns="http://www.w3.org/2000/svg" d="m512.055 392.03h-77.918l40.031-60h-106.01l-17.45-101.743 94.579-92.192-130.687-18.99-58.473-119.08-58.473 119.081-130.686 18.99 94.579 92.192-17.45 101.743h-106.009l40.031 60h-78.119l40 60-40 60h175.397l30-60h101.459l30 60h175.198l-40-60zm-380.617-232.988 86.178-12.522 38.512-78.432 38.513 78.432 86.178 12.522-62.345 60.771 14.718 85.811-77.063-40.514-77.063 40.514 14.718-85.81zm124.689 139.961 62.821 33.027h-125.642zm161.96 63.027-40.03 60h-243.859l-40.03-60zm-362.032 60h42.079l39.983 60h-82.062l20-30zm108.222 45.158-10.094-15.158h17.673zm193.794-15.158-10.094 15.159-7.579-15.159zm97.929 30h-81.863l39.984-60h41.879l-20 30z" fill="#3E3F42" data-original="#000000" style=""/></g></svg>
