<svg id="Pattern" xmlns="http://www.w3.org/2000/svg" width="219.968" height="104.093" viewBox="0 0 219.968 104.093" fill-opacity="0.5">
  <path id="Path_229" data-name="Path 229" d="M800.2,505.533l-2.52-3.472-4.29.108a.59.59,0,0,1-.491-.937l2.525-3.471L794,493.714a.589.589,0,0,1,.739-.756l4.081,1.328,3.407-2.608a.591.591,0,0,1,.949.468l0,4.29,3.534,2.435a.591.591,0,0,1-.152,1.047l-4.083,1.324-1.224,4.113A.594.594,0,0,1,800.2,505.533Z" transform="translate(-626.581 -428.111)" fill="#d5f3ec"/>
  <path id="Path_237" data-name="Path 237" d="M742.32,329.494l-2.579-3.73-4.535.01a.623.623,0,0,1-.5-1l2.751-3.605-1.411-4.31a.623.623,0,0,1,.8-.781l4.279,1.5,3.663-2.674a.624.624,0,0,1,.991.518l-.106,4.533,3.675,2.658a.624.624,0,0,1-.187,1.1l-4.344,1.3-1.392,4.316A.624.624,0,0,1,742.32,329.494Z" transform="translate(-734.58 -265.364)" fill="#fbbcae"/>
  <path id="Path_230" data-name="Path 230" d="M926.519,323.908l-4.8.191-1.886,4.516-5.392-.167-.526,5.43-6.1.083-1.1,4.939-5.86,1.039-.394-2.219,4.382-.776L906,331.731l5.867-.077.535-5.521,5.949.182,1.843-4.409,4.444-.177.606-3.148,2.212.423Z" transform="translate(-867.926 -272.162)" fill="#d5f3ec"/>
  <path id="Path_234" data-name="Path 234" d="M926.519,323.908l-4.8.191-1.886,4.516-5.392-.167-.526,5.43-6.1.083-1.1,4.939-5.86,1.039-.394-2.219,4.382-.776L906,331.731l5.867-.077.535-5.521,5.949.182,1.843-4.409,4.444-.177.606-3.148,2.212.423Z" transform="translate(-286.411 -861.991) rotate(45)" fill="#d5f3ec"/>
  <g id="Group_325" data-name="Group 325" transform="translate(3.654 81.627)">
    <g id="Group_318" data-name="Group 318" transform="translate(0 0)">
      <path id="Path_127" data-name="Path 127" d="M609.539,543a11.231,11.231,0,1,1-13.3-8.687A11.228,11.228,0,0,1,609.539,543Z" transform="translate(-587.314 -534.067)" fill="#f3d6a2"/>
<!--      <path id="Path_128" data-name="Path 128" d="M617.04,597.536a6,6,0,1,0,11.753-2.466Z" transform="translate(-611.318 -583.328)" fill="#efefef"/>-->
    </g>
  </g>
  <path id="Path_226" data-name="Path 226" d="M252.046,916.117l-1.2-6.24,4.458-4.531a.874.874,0,0,0-.516-1.48l-6.308-.781-2.932-5.64a.874.874,0,0,0-1.567.033l-2.693,5.757-6.269,1.045a.873.873,0,0,0-.452,1.5l4.645,4.341-.943,6.287a.873.873,0,0,0,1.286.893l5.563-3.076,5.686,2.839A.871.871,0,0,0,252.046,916.117Z" transform="translate(-35.584 -821.491)" fill="#f3d6a2"/>
  <path id="Path_232" data-name="Path 232" d="M503.188,404.889a2.939,2.939,0,1,1-2.939-2.939A2.939,2.939,0,0,1,503.188,404.889Z" transform="translate(-456.98 -366.753)" fill="#466eb6"/>
  <path id="Path_233" data-name="Path 233" d="M503.188,404.889a2.939,2.939,0,1,1-2.939-2.939A2.939,2.939,0,0,1,503.188,404.889Z" transform="translate(-302.98 -371.753)" fill="#f3d6a2"/>
  <path id="Path_236" data-name="Path 236" d="M503.188,404.889a2.939,2.939,0,1,1-2.939-2.939A2.939,2.939,0,0,1,503.188,404.889Z" transform="translate(-483.98 -380.753)" fill="#f3d6a2"/>
  <path id="Path_231" data-name="Path 231" d="M2599.418,398.035,2596.367,401l-5.316-4.381-5,3.788-4.516-2.627-1.33,2.285,6.038,3.517,4.733-3.592,5.532,4.558,4.589-4.466Z" transform="translate(-2153.392 -1183.06) rotate(19)" fill="#fbbcae"/>
  <path id="Path_235" data-name="Path 235" d="M2802.1,723.687l-4.452.6-2.029,4.009a.617.617,0,0,1-1.107-.012l-1.95-4.05-4.441-.691a.617.617,0,0,1-.331-1.057l3.249-3.1-.716-4.437a.618.618,0,0,1,.9-.643l3.958,2.131,4-2.052a.617.617,0,0,1,.889.66l-.8,4.421,3.188,3.168A.622.622,0,0,1,2802.1,723.687Z" transform="translate(-2724.423 -695.924)" fill="#f3d6a2"/>
</svg>
