<svg id="_3" data-name="3" xmlns="http://www.w3.org/2000/svg" width="33.285" height="39.376" viewBox="0 0 33.285 39.376">
  <g id="bronze-medal" transform="translate(-39.592)">
    <path id="Path_72" data-name="Path 72" d="M48.191,221.248l-8.6,16.2,7.809-.721,3.78,6.872,8.6-16.2Z" transform="translate(0 -204.224)" fill="#a1110a"/>
    <g id="Group_288" data-name="Group 288" transform="translate(46.696 17.024)">
      <path id="Path_74" data-name="Path 74" d="M221.389,221.248l8.6,16.2-7.809-.721L218.4,243.6l-8.6-16.2Z" transform="translate(-203.807 -221.248)" fill="#a1110a"/>
    </g>
    <circle id="Ellipse_45" data-name="Ellipse 45" cx="14.369" cy="14.369" r="14.369" transform="translate(41.866 0)" fill="#e98a4e"/>
    <path id="Path_76" data-name="Path 76" d="M85.964,25.658H76.858a1.294,1.294,0,0,1-1.289-1.289l.01-.089v-.02A1.346,1.346,0,0,1,76.927,22.9h6.311a1.6,1.6,0,0,0,1.624-1.456,1.543,1.543,0,0,0-1.535-1.614H76.641a1.3,1.3,0,0,1-1.279-1.358v-.039a1.3,1.3,0,0,1,1.279-1.358h7a1.593,1.593,0,0,0,1.614-1.447,1.537,1.537,0,0,0-1.535-1.614H78.593a14.367,14.367,0,0,0,0,26.576h6.5a1.593,1.593,0,0,0,1.614-1.447,1.536,1.536,0,0,0-1.535-1.613h-7.4a1.531,1.531,0,0,1-1.529-1.614,1.59,1.59,0,0,1,1.615-1.449h2.869a1.533,1.533,0,0,0-.044-3.066H76.34a1.279,1.279,0,0,1-1.279-1.289v-.108a1.211,1.211,0,0,1,1.21-1.289h9.6A1.6,1.6,0,0,0,87.5,27.27,1.538,1.538,0,0,0,85.964,25.658Z" transform="translate(-27.78 -12.938)" fill="#e57024"/>
    <path id="Path_77" data-name="Path 77" d="M132.841,73.952A10.256,10.256,0,1,1,143.1,63.7,10.269,10.269,0,0,1,132.841,73.952Z" transform="translate(-76.606 -49.328)" fill="#f58d4b"/>
    <path id="Path_78" data-name="Path 78" d="M239.745,64.051a10.261,10.261,0,0,0-9.668-10.227h-.955a1.215,1.215,0,0,0-1.231,1.1,1.173,1.173,0,0,0,1.171,1.231h5.644a1.167,1.167,0,0,1,1.166,1.231,1.213,1.213,0,0,1-1.232,1.106h-2.188a1.169,1.169,0,0,0,.033,2.338H235.8a.975.975,0,0,1,.975.982V61.9a.923.923,0,0,1-.923.982h-7.324a1.217,1.217,0,0,0-1.239,1.1,1.173,1.173,0,0,0,1.171,1.231H235.4a.986.986,0,0,1,.982.982l-.007.068v.015a1.027,1.027,0,0,1-1.028,1.035h-4.814a1.218,1.218,0,0,0-1.239,1.11,1.177,1.177,0,0,0,1.171,1.231h5.1a.992.992,0,0,1,.975,1.035v.03a.992.992,0,0,1-.975,1.035h-5.334A1.215,1.215,0,0,0,229,72.86a1.172,1.172,0,0,0,1.171,1.231h1.407A10.273,10.273,0,0,0,239.745,64.051Z" transform="translate(-173.254 -49.682)" fill="#fff" opacity="0.2"/>
    <path id="Path_79" data-name="Path 79" d="M169.184,94.814H164.2l-1.543-4.745a.662.662,0,0,0-1.259,0l-1.541,4.745h-4.989a.662.662,0,0,0-.389,1.2l4.036,2.933-1.541,4.745a.662.662,0,0,0,1.019.74l4.036-2.933,4.036,2.933a.662.662,0,0,0,1.019-.74l-1.541-4.745,4.036-2.933A.662.662,0,0,0,169.184,94.814Z" transform="translate(-105.79 -82.717)" fill="#cf6521"/>
  </g>
</svg>
