<svg id="_1" data-name="1" xmlns="http://www.w3.org/2000/svg" width="33.279" height="39.379" viewBox="0 0 33.279 39.379">
  <path id="Path_56" data-name="Path 56" d="M48.413,221.248l-8.821,16.618,8.01-.74,3.877,7.049L60.3,227.557Z" transform="translate(-39.592 -204.796)" fill="#a0120a"/>
  <g id="Group_272" data-name="Group 272" transform="translate(6.426 16.452)">
    <path id="Path_58" data-name="Path 58" d="M221.687,221.248l8.821,16.618-8.01-.74-3.877,7.049L209.8,227.557Z" transform="translate(-203.653 -221.248)" fill="#a1110a"/>
  </g>
  <ellipse id="Ellipse_31" data-name="Ellipse 31" cx="14.308" cy="14.738" rx="14.308" ry="14.738" transform="translate(2.332)" fill="#ffcc5b"/>
  <path id="Path_60" data-name="Path 60" d="M86.382,25.957h-9.34a1.327,1.327,0,0,1-1.322-1.322l.01-.091v-.02a1.381,1.381,0,0,1,1.383-1.393h6.473a1.637,1.637,0,0,0,1.666-1.494,1.583,1.583,0,0,0-1.575-1.656H76.82a1.335,1.335,0,0,1-1.312-1.393v-.04a1.335,1.335,0,0,1,1.312-1.393H84a1.634,1.634,0,0,0,1.656-1.484,1.577,1.577,0,0,0-1.575-1.656H78.822a14.736,14.736,0,0,0,0,27.26h6.671a1.634,1.634,0,0,0,1.656-1.484,1.576,1.576,0,0,0-1.575-1.654H77.986a1.57,1.57,0,0,1-1.568-1.656,1.631,1.631,0,0,1,1.657-1.486h2.942a1.572,1.572,0,0,0-.045-3.144h-4.46A1.311,1.311,0,0,1,75.2,30.528v-.111a1.242,1.242,0,0,1,1.241-1.322h9.851a1.636,1.636,0,0,0,1.666-1.484A1.577,1.577,0,0,0,86.382,25.957Z" transform="translate(-67.313 -12.91)" fill="#fdbc4b"/>
  <path id="Path_61" data-name="Path 61" d="M132.674,74.479a10.529,10.529,0,1,1,10.09-10.519A10.324,10.324,0,0,1,132.674,74.479Z" transform="translate(-116.033 -49.222)" fill="#ffdb70"/>
  <path id="Path_62" data-name="Path 62" d="M240.066,64.314a10.525,10.525,0,0,0-9.917-10.49h-.98a1.247,1.247,0,0,0-1.263,1.131,1.2,1.2,0,0,0,1.2,1.263H234.9a1.2,1.2,0,0,1,1.2,1.263,1.244,1.244,0,0,1-1.264,1.134h-2.244a1.2,1.2,0,0,0,.034,2.4h3.4a1,1,0,0,1,1,1.008v.083a.946.946,0,0,1-.947,1.008H228.56a1.249,1.249,0,0,0-1.27,1.131,1.2,1.2,0,0,0,1.2,1.263h7.122a1.011,1.011,0,0,1,1.008,1.008l-.008.069V66.6a1.053,1.053,0,0,1-1.054,1.062h-4.937a1.249,1.249,0,0,0-1.27,1.139,1.208,1.208,0,0,0,1.2,1.263h5.229a1.018,1.018,0,0,1,1,1.062v.03a1.018,1.018,0,0,1-1,1.062h-5.472a1.247,1.247,0,0,0-1.263,1.131,1.2,1.2,0,0,0,1.2,1.263h1.443A10.537,10.537,0,0,0,240.066,64.314Z" transform="translate(-213.071 -49.576)" fill="#fff" opacity="0.2"/>
  <path id="Path_63" data-name="Path 63" d="M169.57,94.948h-5.117l-1.582-4.867a.679.679,0,0,0-1.292,0L160,94.948h-5.117a.679.679,0,0,0-.4,1.229l4.139,3.008-1.581,4.867a.679.679,0,0,0,1.046.759l4.139-3.008,4.139,3.008a.679.679,0,0,0,1.046-.759l-1.581-4.867,4.139-3.008A.679.679,0,0,0,169.57,94.948Z" transform="translate(-145.585 -82.825)" fill="#ec9922"/>
</svg>
