<svg id="_2" data-name="2" xmlns="http://www.w3.org/2000/svg" width="33.284" height="39.376" viewBox="0 0 33.284 39.376">
  <path id="Path_64" data-name="Path 64" d="M48.191,221.248l-8.6,16.2,7.809-.721,3.78,6.872,8.6-16.2Z" transform="translate(-39.592 -204.224)" fill="#a0120a"/>
  <g id="Group_286" data-name="Group 286" transform="translate(7.103 17.024)">
    <path id="Path_66" data-name="Path 66" d="M221.389,221.248l8.6,16.2-7.809-.721L218.4,243.6l-8.6-16.2Z" transform="translate(-203.808 -221.248)" fill="#a1110a"/>
  </g>
  <path id="Path_80" data-name="Path 80" d="M14.368,0A14.368,14.368,0,1,1,0,14.368,14.368,14.368,0,0,1,14.368,0Z" transform="translate(2.273)" fill="#acb3bb"/>
  <path id="Path_68" data-name="Path 68" d="M85.963,25.657H76.858a1.294,1.294,0,0,1-1.289-1.289l.01-.089v-.02A1.346,1.346,0,0,1,76.927,22.9h6.311a1.6,1.6,0,0,0,1.624-1.456,1.543,1.543,0,0,0-1.535-1.614H76.641a1.3,1.3,0,0,1-1.279-1.358v-.039a1.3,1.3,0,0,1,1.279-1.358h7a1.593,1.593,0,0,0,1.614-1.447,1.537,1.537,0,0,0-1.535-1.614H78.593a14.367,14.367,0,0,0,0,26.576h6.5a1.593,1.593,0,0,0,1.614-1.447,1.536,1.536,0,0,0-1.535-1.613h-7.4a1.531,1.531,0,0,1-1.529-1.614,1.59,1.59,0,0,1,1.615-1.449h2.868a1.533,1.533,0,0,0-.044-3.065H76.34a1.279,1.279,0,0,1-1.279-1.289v-.108a1.211,1.211,0,0,1,1.21-1.289h9.6A1.6,1.6,0,0,0,87.5,27.27,1.538,1.538,0,0,0,85.963,25.657Z" transform="translate(-67.371 -12.937)" fill="#bdc7d1"/>
  <path id="Path_69" data-name="Path 69" d="M132.84,73.952A10.256,10.256,0,1,1,143.1,63.7,10.268,10.268,0,0,1,132.84,73.952Z" transform="translate(-116.199 -49.328)" fill="#ccd4dd"/>
  <path id="Path_70" data-name="Path 70" d="M239.745,64.051a10.261,10.261,0,0,0-9.668-10.227h-.955a1.216,1.216,0,0,0-1.231,1.1,1.173,1.173,0,0,0,1.171,1.231H234.7a1.167,1.167,0,0,1,1.166,1.231,1.213,1.213,0,0,1-1.232,1.106h-2.188a1.169,1.169,0,0,0,.033,2.338H235.8a.975.975,0,0,1,.975.982V61.9a.923.923,0,0,1-.923.982h-7.324a1.217,1.217,0,0,0-1.239,1.1,1.173,1.173,0,0,0,1.171,1.231H235.4a.986.986,0,0,1,.982.982l-.007.068v.015a1.027,1.027,0,0,1-1.028,1.035h-4.814a1.218,1.218,0,0,0-1.239,1.11,1.177,1.177,0,0,0,1.171,1.231h5.1a.992.992,0,0,1,.975,1.035v.03a.992.992,0,0,1-.975,1.035h-5.334A1.215,1.215,0,0,0,229,72.86a1.172,1.172,0,0,0,1.171,1.231h1.407A10.273,10.273,0,0,0,239.745,64.051Z" transform="translate(-212.848 -49.682)" fill="#fff" opacity="0.2"/>
  <path id="Path_71" data-name="Path 71" d="M169.184,94.814H164.2l-1.543-4.745a.662.662,0,0,0-1.259,0l-1.541,4.745h-4.989a.662.662,0,0,0-.389,1.2l4.036,2.933-1.541,4.745a.662.662,0,0,0,1.019.74l4.036-2.933,4.036,2.933a.662.662,0,0,0,1.019-.74l-1.541-4.745,4.036-2.933A.662.662,0,0,0,169.184,94.814Z" transform="translate(-145.381 -82.717)" fill="#a1aebc"/>
</svg>
